PathFileType	4	(X/Y/Z)
DataRate	CameraRate	NumFrames	NumMarkers	Units	OrigDataRate	OrigDataStartFrame	OrigNumFrames
120	120	4	142	mm	120	414	473	
Frame#	Time	 STRN			 T1			 T8			 T10			 T12			 C7			 CLAV			 LANK			 RANK			 LANI			 RANI			 LASI			 RASI			 LPSI			 RPSI			 LSHO			 RSHO			 LTOE			 RTOE			 RHEE			 LHEE			 LKNE			 RKNE			 LKNI			 RKNI			 RIWR			 LIWR			 RELB			 LELB			 RELBIN			 LELBIN			 LOWR			 ROWR			 RCLAV			 LCLAV			 RFHD			 LBHD			 LFHD			 RBHD			 LMT1			 LMT5			 RMT1			 RMT5			 Tracking_L5			 Tracking_L4			 Tracking_L3			 Tracking_L2			 Tracking_L1			 Tracking_T11			 Tracking_T9			 Tracking_T7			 Tracking_T6			 Tracking_T5			 Tracking_T4			 Tracking_T3			 Tracking_T2			 rthumb			 rindex			 rmiddle			 rring			 rpinky			 lthumb			 lindex			 lmiddle			 lring			 lpinky			 ROOT			 Spine1			 Spine2			 Spine3			 LHIPJ			 RHIPJ			 LKJC			 RKJC			 LAJC			 RAJC			 LFOOT			 RFOOT			 NECK			 LCOL			 RCOL			 HEAD			 LSHOULDER			 RSHOULDER			 LELC			 RELC			 LWRIST			 RWRIST			 left_index1			 left_index2			 left_index3			 left_middle1			 left_middle2			 left_middle3			 left_pinky1			 left_pinky2			 left_pinky3			 left_ring1			 left_ring2			 left_ring3			 left_thumb1			 left_thumb2			 left_thumb3			 right_index1			 right_index2			 right_index3			 right_middle1			 right_middle2			 right_middle3			 right_pinky1			 right_pinky2			 right_pinky3			 right_ring1			 right_ring2			 right_ring3			 right_thumb1			 right_thumb2			 right_thumb3			 MASI			 MPSI			 MHIPJ			 CENTER			 Virtual_LWRIST			 Virtual_RWRIST			 Virtual_LAJC			 Virtual_RAJC			 Virtual_LKJC			 Virtual_RKJC			 Virtual_LELC			 Virtual_RELC			 Virtual_Ground_RAJC			 Virtual_Ground_LAJC			 Virtual_Ground_RFOOT			 Virtual_Ground_LFOOT			 Virtual_Ground_RTOE			 Virtual_Ground_LTOE			 Virtual_Ground_RMT1			 Virtual_Ground_LMT1			 Virtual_Ground_RMT5			 Virtual_Ground_LMT5			 Virtual_Ground_RHEE			 Virtual_Ground_LHEE		
		X1	Y1	Z1	X2	Y2	Z2	X3	Y3	Z3	X4	Y4	Z4	X5	Y5	Z5	X6	Y6	Z6	X7	Y7	Z7	X8	Y8	Z8	X9	Y9	Z9	X10	Y10	Z10	X11	Y11	Z11	X12	Y12	Z12	X13	Y13	Z13	X14	Y14	Z14	X15	Y15	Z15	X16	Y16	Z16	X17	Y17	Z17	X18	Y18	Z18	X19	Y19	Z19	X20	Y20	Z20	X21	Y21	Z21	X22	Y22	Z22	X23	Y23	Z23	X24	Y24	Z24	X25	Y25	Z25	X26	Y26	Z26	X27	Y27	Z27	X28	Y28	Z28	X29	Y29	Z29	X30	Y30	Z30	X31	Y31	Z31	X32	Y32	Z32	X33	Y33	Z33	X34	Y34	Z34	X35	Y35	Z35	X36	Y36	Z36	X37	Y37	Z37	X38	Y38	Z38	X39	Y39	Z39	X40	Y40	Z40	X41	Y41	Z41	X42	Y42	Z42	X43	Y43	Z43	X44	Y44	Z44	X45	Y45	Z45	X46	Y46	Z46	X47	Y47	Z47	X48	Y48	Z48	X49	Y49	Z49	X50	Y50	Z50	X51	Y51	Z51	X52	Y52	Z52	X53	Y53	Z53	X54	Y54	Z54	X55	Y55	Z55	X56	Y56	Z56	X57	Y57	Z57	X58	Y58	Z58	X59	Y59	Z59	X60	Y60	Z60	X61	Y61	Z61	X62	Y62	Z62	X63	Y63	Z63	X64	Y64	Z64	X65	Y65	Z65	X66	Y66	Z66	X67	Y67	Z67	X68	Y68	Z68	X69	Y69	Z69	X70	Y70	Z70	X71	Y71	Z71	X72	Y72	Z72	X73	Y73	Z73	X74	Y74	Z74	X75	Y75	Z75	X76	Y76	Z76	X77	Y77	Z77	X78	Y78	Z78	X79	Y79	Z79	X80	Y80	Z80	X81	Y81	Z81	X82	Y82	Z82	X83	Y83	Z83	X84	Y84	Z84	X85	Y85	Z85	X86	Y86	Z86	X87	Y87	Z87	X88	Y88	Z88	X89	Y89	Z89	X90	Y90	Z90	X91	Y91	Z91	X92	Y92	Z92	X93	Y93	Z93	X94	Y94	Z94	X95	Y95	Z95	X96	Y96	Z96	X97	Y97	Z97	X98	Y98	Z98	X99	Y99	Z99	X100	Y100	Z100	X101	Y101	Z101	X102	Y102	Z102	X103	Y103	Z103	X104	Y104	Z104	X105	Y105	Z105	X106	Y106	Z106	X107	Y107	Z107	X108	Y108	Z108	X109	Y109	Z109	X110	Y110	Z110	X111	Y111	Z111	X112	Y112	Z112	X113	Y113	Z113	X114	Y114	Z114	X115	Y115	Z115	X116	Y116	Z116	X117	Y117	Z117	X118	Y118	Z118	X119	Y119	Z119	X120	Y120	Z120	X121	Y121	Z121	X122	Y122	Z122	X123	Y123	Z123	X124	Y124	Z124	X125	Y125	Z125	X126	Y126	Z126	X127	Y127	Z127	X128	Y128	Z128	X129	Y129	Z129	X130	Y130	Z130	X131	Y131	Z131	X132	Y132	Z132	X133	Y133	Z133	X134	Y134	Z134	X135	Y135	Z135	X136	Y136	Z136	X137	Y137	Z137	X138	Y138	Z138	X139	Y139	Z139	X140	Y140	Z140	X141	Y141	Z141	X142	Y142	Z142

414	3.4417	348.998189	-462.883443	1164.435863	357.202142	-312.011391	1472.727537	350.302130	-195.433512	1279.137611	347.289771	-193.804264	1225.408912	344.695151	-199.483797	1170.698166	358.400971	-339.918345	1490.011573	350.095987	-435.572296	1365.612388	455.160886	-225.220099	52.615043	247.589365	-222.373530	55.373307	393.381298	-224.240229	75.541072	308.894753	-231.003374	79.834573	472.374022	-376.497149	906.199515	203.409925	-371.290267	905.102253	402.935177	-161.462784	1002.499223	282.205731	-162.281096	1004.918218	492.631495	-377.623498	1415.718079	214.386359	-375.899464	1420.592904	426.869512	-404.537797	-7.462864	251.832128	-403.153479	-3.480142	306.917936	-170.115009	-0.251954	412.232786	-163.176566	-4.201060	489.434838	-300.434023	463.370115	196.124047	-309.972644	459.513187	381.430745	-310.629934	460.368484	307.343751	-325.637281	459.407896	92.229992	-401.415467	811.809242	598.381042	-425.452203	802.378535	70.375949	-329.092026	1071.556687	616.750240	-343.553245	1059.798837	146.264568	-284.673274	1047.627926	535.424590	-305.655062	1040.390730	622.724652	-370.918930	795.463920	58.939159	-349.654257	807.558239	276.972502	-419.831455	1382.012606	426.419765	-423.373401	1378.627658	293.562800	-597.043097	1523.701072	412.864625	-551.570296	1633.525968	395.516604	-609.384060	1514.033198	312.174082	-538.267970	1643.505096	427.120030	-350.760281	14.950031	494.720727	-323.984146	-4.212504	255.929977	-352.115929	18.197769	187.415987	-315.596968	-3.309732	340.739429	-180.875778	1039.762497	340.701669	-190.826192	1063.957334	341.546267	-199.438423	1092.114568	342.061102	-202.821687	1118.546128	343.248129	-202.023983	1144.234300	346.110821	-196.364418	1197.431207	348.747373	-193.497553	1253.075361	351.175606	-199.307099	1302.583575	353.126168	-212.035388	1343.012810	354.447335	-227.548048	1375.389457	355.141878	-254.214317	1416.342378	355.695665	-272.686929	1438.204169	356.427193	-290.043712	1454.942107	142.899588	-405.116707	676.004887	110.455066	-390.854537	638.496935	96.760660	-367.752671	635.881066	93.034416	-352.324426	651.493609	79.858035	-333.711386	669.505477	561.299264	-449.137181	666.332960	581.564844	-432.337046	635.425746	590.944409	-410.407424	628.846467	593.041480	-393.449187	642.923653	605.690062	-372.114271	659.510732	340.798050	-293.888777	923.044980	345.776886	-259.897739	1051.006556	353.231013	-318.857044	1171.436906	351.496637	-336.979687	1221.497774	401.491433	-271.987230	841.923952	276.954889	-277.926236	833.480418	449.588835	-302.346110	463.697463	237.075463	-313.867569	455.701828	408.895850	-230.559200	46.197470	296.780676	-232.893959	49.992677	466.620743	-342.692882	-16.134983	218.227476	-343.023300	-7.752066	345.647335	-370.204419	1430.202961	427.267432	-356.331855	1334.449530	272.529662	-347.485155	1339.343548	352.324963	-455.147982	1471.475601	558.595240	-351.977468	1303.441644	150.114194	-355.859101	1316.052794	574.707568	-322.114289	1048.014998	109.203428	-304.539591	1059.828997	607.418716	-395.816565	792.801082	78.109801	-371.052146	800.035596	615.747511	-446.078748	697.220862	613.806188	-453.005135	664.857626	598.940969	-443.633497	649.550080	633.711338	-430.580378	687.821865	630.954325	-429.446369	655.967951	613.940835	-419.589341	641.033351	644.395888	-383.728474	701.626241	639.463007	-378.687590	682.463765	624.709666	-373.125970	670.512557	642.194688	-405.274987	694.146931	635.630846	-406.123579	665.270746	616.574824	-398.542255	651.726902	584.965289	-423.748374	749.708593	570.881367	-435.539633	723.680735	569.397092	-447.861850	699.369490	79.217315	-415.589690	701.535821	81.088871	-418.497264	667.751253	94.003364	-405.200422	653.320491	58.089346	-400.809735	692.665458	60.311377	-396.275312	660.893023	75.733304	-382.757634	647.381306	41.859627	-355.607241	709.333360	46.693802	-347.483337	691.264868	60.802132	-338.759422	680.626452	46.020806	-376.419723	700.488389	51.846683	-373.130918	671.613693	69.646716	-361.091405	659.383893	107.030213	-393.818468	758.139610	124.496132	-399.149925	731.367350	129.574746	-407.074869	705.159009	337.891974	-373.893708	905.650884	342.570454	-161.871940	1003.708720	339.223161	-274.956733	837.702185	340.231214	-267.882824	954.679802	610.552847	-398.185566	798.921227	75.584576	-375.534862	809.683740	424.271092	-224.730164	64.078057	278.242059	-226.688452	67.603940	435.432792	-305.531979	461.869299	251.733899	-317.804962	459.460542	576.087415	-324.604154	1050.094783	108.320259	-306.882650	1059.592307	278.242059	-711.902976	67.603940	424.271092	-711.902976	64.078057	218.227476	-711.902976	-7.752066	466.620743	-711.902976	-16.134983	251.832128	-711.902976	-3.480142	426.869512	-711.902976	-7.462864	255.929977	-711.902976	18.197769	427.120030	-711.902976	14.950031	187.415987	-711.902976	-3.309732	494.720727	-711.902976	-4.212504	306.917936	-711.902976	-0.251954	412.232786	-711.902976	-4.201060
415	3.4500	349.237740	-463.022798	1165.428042	357.173592	-310.619235	1473.025322	350.279570	-195.130304	1278.843880	347.320735	-193.796605	1225.158215	344.808519	-199.738041	1170.546770	358.401299	-338.412911	1490.421176	350.167125	-434.715211	1366.561532	455.330610	-225.386977	51.956255	247.737885	-222.367227	54.812808	393.524259	-224.324673	74.862145	309.073389	-230.959922	79.211555	472.924203	-376.824439	905.930817	203.973919	-372.119159	904.878795	403.111309	-162.107632	1002.527714	282.412410	-163.123459	1004.901290	492.657274	-376.379609	1416.474938	214.431018	-374.851882	1421.236277	426.943749	-404.940277	-7.614593	251.814097	-403.310508	-3.734093	307.026416	-170.275450	-1.011353	412.398458	-163.581505	-5.069058	489.109993	-297.967523	463.128328	196.963221	-308.403939	459.279984	381.123245	-308.372945	460.218906	308.157563	-324.066997	459.195554	92.114903	-402.956396	812.643349	596.607089	-427.543402	803.397655	70.111968	-329.601020	1072.120309	616.778433	-344.323725	1060.408115	145.916700	-285.175592	1047.963381	535.823882	-305.902183	1040.918231	621.550620	-373.325378	796.205699	58.748491	-351.261765	808.191001	277.033389	-418.926924	1382.847309	426.484585	-422.375143	1379.564047	293.540359	-595.219374	1525.811911	412.994325	-549.025357	1635.187030	395.482928	-607.673287	1516.113877	312.325716	-535.594642	1645.188570	427.215129	-351.087272	14.667291	494.872034	-324.405670	-4.529815	255.960494	-352.244288	17.915685	187.430322	-315.717459	-3.561418	340.977550	-181.587562	1039.686084	340.945929	-191.483781	1063.863993	341.774195	-200.021714	1092.009187	342.257321	-203.308254	1118.443608	343.406379	-202.402025	1144.116640	346.181571	-196.494281	1197.230816	348.747402	-193.339631	1252.794266	351.135701	-198.874086	1302.299023	353.067636	-211.375117	1342.786908	354.377538	-226.702094	1375.251174	355.082214	-253.137201	1416.359544	355.647564	-271.492362	1438.318491	356.384665	-288.757205	1455.145001	143.117905	-406.964928	676.985264	110.726245	-392.820179	639.347970	97.016640	-369.742870	636.644363	93.230791	-354.287326	652.205765	79.978950	-335.634440	670.116544	557.996869	-450.834125	667.674899	578.208506	-434.229970	636.550248	587.755144	-412.410617	629.891992	590.179861	-395.464897	643.947899	603.221238	-374.297887	660.410643	341.203928	-294.417858	923.072755	346.112132	-260.505587	1051.057935	353.378981	-318.942577	1171.754122	351.589113	-336.814582	1221.903086	401.861876	-272.348762	841.970682	277.336985	-278.511584	833.515167	449.317008	-300.051242	463.459224	237.902671	-312.338710	455.494672	409.023076	-230.755895	45.499761	296.937734	-232.935682	49.377222	466.740251	-343.124151	-16.416054	218.222916	-343.148172	-7.987540	345.656723	-368.995786	1430.769324	427.315950	-355.542362	1334.989429	272.569031	-346.788049	1339.759469	352.319479	-453.707129	1472.518921	558.679342	-351.165444	1304.135919	150.128931	-355.305463	1316.650987	574.991882	-322.561502	1048.577905	108.866267	-305.024713	1060.277700	605.978012	-398.076624	793.678761	77.944584	-372.668236	800.755918	612.806082	-448.373944	697.998106	610.467315	-455.260843	665.652752	595.553875	-445.719004	650.498033	630.843759	-433.067471	688.427687	627.782524	-431.885868	656.603277	610.729992	-421.835423	641.843081	642.176211	-386.342645	702.145815	637.108326	-381.237626	683.035612	622.298479	-375.508666	671.234250	639.665544	-407.859713	694.679201	632.805884	-408.620656	665.869415	613.700032	-400.824249	652.519286	582.793295	-425.737828	750.799537	568.323195	-437.360257	724.907875	566.462636	-449.652106	700.607121	79.374619	-417.440683	702.366829	81.341304	-420.426995	668.594480	94.278164	-407.148600	654.166877	58.252223	-402.708679	693.403840	60.554601	-398.247749	661.626756	75.996108	-384.743124	648.124337	41.920878	-357.486755	709.919095	46.793796	-349.400192	691.844285	60.919948	-340.684086	681.223094	46.132036	-378.315181	701.135457	52.031972	-375.088364	672.268808	69.849946	-363.055855	660.058260	107.006826	-395.498633	758.993149	124.551840	-400.872350	732.281089	129.711315	-408.853799	706.105709	338.449061	-374.471799	905.404806	342.761859	-162.615545	1003.714502	339.599431	-275.430173	837.742925	340.605460	-268.543672	954.559654	609.078854	-400.434390	799.801677	75.431697	-377.109081	810.417175	424.427435	-224.855825	63.409200	278.405637	-226.663575	67.012182	435.116619	-303.170234	461.673617	252.560392	-316.235468	459.237769	576.301157	-325.112954	1050.663173	108.014334	-307.388306	1060.041845	278.405637	-711.902976	67.012182	424.427435	-711.902976	63.409200	218.222916	-711.902976	-7.987540	466.740251	-711.902976	-16.416054	251.814097	-711.902976	-3.734093	426.943749	-711.902976	-7.614593	255.960494	-711.902976	17.915685	427.215129	-711.902976	14.667291	187.430322	-711.902976	-3.561418	494.872034	-711.902976	-4.529815	307.026416	-711.902976	-1.011353	412.398458	-711.902976	-5.069058
416	3.4583	349.527746	-462.974012	1166.344881	357.162803	-309.071213	1473.283768	350.288242	-194.671184	1278.507352	347.382307	-193.632841	1224.876881	344.940037	-199.830309	1170.372367	358.425081	-336.765379	1490.780950	350.247651	-433.687240	1367.466688	455.387980	-225.145563	51.428150	247.911379	-222.237036	54.303538	393.560618	-224.062741	74.313417	309.266388	-230.784550	78.630105	473.270744	-377.222687	905.650496	204.339847	-372.776091	904.680312	403.305769	-162.709296	1002.486706	282.629788	-163.821027	1004.850388	492.735237	-374.950081	1417.113781	214.440942	-373.604149	1421.759129	427.109689	-404.944539	-7.779466	251.832306	-403.346360	-3.878402	307.134062	-170.303389	-1.736449	412.417233	-163.554147	-5.753505	488.726586	-295.620412	462.921500	197.786286	-306.807846	459.072381	380.761713	-306.216538	460.075766	308.947384	-322.490364	459.023833	91.990724	-404.305100	813.325942	595.072031	-429.466844	804.342628	69.857195	-329.791278	1072.495699	616.869152	-344.724417	1060.907483	145.660058	-285.477608	1048.103571	536.303520	-305.806339	1041.212678	620.916545	-375.706613	796.971858	58.543578	-352.688491	808.688045	277.085453	-417.832464	1383.622527	426.572531	-421.201527	1380.435824	293.557525	-593.203008	1528.017282	413.232565	-546.164393	1636.815667	395.480126	-605.765581	1518.239498	312.593669	-532.600462	1646.883130	427.289605	-351.015866	14.410032	494.966239	-324.317425	-4.786896	256.028056	-352.243692	17.703367	187.477708	-315.724760	-3.739821	341.204464	-182.185069	1039.573550	341.173708	-192.013860	1063.742042	341.991186	-200.465947	1091.883302	342.451870	-203.645021	1118.322730	343.571812	-202.620953	1143.978596	346.277237	-196.463704	1197.003841	348.780751	-193.028450	1252.476215	351.125509	-198.279455	1301.965952	353.036374	-210.541934	1342.507124	354.331762	-225.687593	1375.055790	355.043113	-251.900136	1416.319728	355.616122	-270.138681	1438.375354	356.356740	-287.312299	1455.296397	143.439040	-408.462018	677.835882	111.109063	-394.444436	640.060782	97.364947	-371.388614	637.291729	93.490288	-355.907202	652.812123	80.141351	-337.235183	670.632720	554.817379	-451.757342	668.861151	575.096726	-435.451806	637.585461	584.995747	-413.801283	630.884767	587.874889	-396.913260	644.960165	601.458132	-376.047194	661.365926	341.491163	-294.874370	923.078120	346.388102	-260.996521	1051.072836	353.541315	-318.832874	1172.064781	351.714343	-336.503297	1222.283721	402.115852	-272.724450	841.973245	277.595431	-278.999954	833.535373	449.005514	-297.869951	463.212878	238.692239	-310.797065	455.283701	409.031153	-230.556309	44.899117	297.127396	-232.843801	48.798811	466.822445	-343.084365	-16.656267	218.245789	-343.159527	-8.136796	345.688075	-367.613226	1431.309700	427.391261	-354.592979	1335.507274	272.635341	-345.928043	1340.145826	352.296531	-452.128112	1473.464012	558.746994	-350.120485	1304.635167	150.198147	-354.533762	1317.054749	575.335443	-322.649032	1048.970699	108.595595	-305.244058	1060.543895	604.967594	-400.239617	794.534326	77.755764	-374.107212	801.333427	609.962821	-450.393170	698.665142	607.195258	-457.146227	666.325450	592.323363	-447.285146	651.335120	628.194809	-435.400993	688.966215	624.861062	-434.074879	657.174885	607.863784	-423.666328	642.600358	640.528440	-388.934493	702.698052	635.380089	-383.682996	683.649182	620.571375	-377.645284	672.001302	637.545466	-410.380185	695.199966	630.405664	-410.933405	666.453540	611.326337	-402.743876	653.302312	580.871165	-427.343875	751.802325	565.945983	-438.622087	726.017058	563.629806	-450.810194	701.703191	79.610541	-419.017762	703.014374	81.698433	-422.048599	669.253290	94.658136	-408.765197	654.850781	58.489725	-404.340655	693.958104	60.891733	-399.920732	662.182689	76.352432	-386.404812	648.713589	42.012408	-359.127641	710.352361	46.930984	-351.057321	692.282677	61.076000	-342.328399	681.697249	46.294853	-379.960239	701.613247	52.286908	-376.763105	672.762215	70.122585	-364.712715	660.595238	107.005671	-396.939665	759.702981	124.652416	-402.316779	733.058691	129.917070	-410.325468	706.912577	338.805296	-374.999389	905.165404	342.967778	-163.265161	1003.668547	339.855641	-275.862202	837.754309	340.886537	-269.132275	954.416975	607.994288	-402.586728	800.657243	75.267151	-378.496796	811.006993	424.474299	-224.604152	62.870784	278.588884	-226.510793	66.466821	434.744149	-300.918475	461.498633	253.366835	-314.649105	459.048107	576.586336	-325.265378	1051.060081	107.758626	-307.634443	1060.299635	278.588884	-711.902976	66.466821	424.474299	-711.902976	62.870784	218.245789	-711.902976	-8.136796	466.822445	-711.902976	-16.656267	251.832306	-711.902976	-3.878402	427.109689	-711.902976	-7.779466	256.028056	-711.902976	17.703367	427.289605	-711.902976	14.410032	187.477708	-711.902976	-3.739821	494.966239	-711.902976	-4.786896	307.134062	-711.902976	-1.736449	412.417233	-711.902976	-5.753505
417	3.4667	349.792302	-462.972641	1167.139173	357.205898	-307.514578	1473.426819	350.461572	-194.262639	1278.055549	347.613990	-193.524376	1224.512696	345.221907	-199.958846	1170.147061	358.476639	-335.099906	1491.034031	350.335807	-432.678401	1368.292928	455.455542	-224.949077	50.932918	248.009115	-222.089693	53.797279	393.610388	-223.812208	73.785454	309.385747	-230.567187	78.050226	473.569542	-377.646774	905.325413	204.694331	-373.405844	904.489994	403.557241	-163.288981	1002.375603	282.899410	-164.469913	1004.767895	492.857069	-373.598069	1417.651176	214.498594	-372.307748	1422.171116	427.235961	-404.996932	-7.867660	251.831412	-403.361797	-4.034605	307.143301	-170.286372	-2.458003	412.498474	-163.555503	-6.428029	488.389075	-293.497473	462.696135	198.564976	-305.212766	458.863497	380.439669	-304.192901	459.912509	309.700340	-320.870757	458.843470	91.801539	-405.650109	813.962102	593.572855	-431.431413	805.288374	69.555655	-329.909623	1072.796702	617.055357	-345.029324	1061.316252	145.376101	-285.754114	1048.163176	536.861837	-305.667311	1041.427493	620.213330	-378.108263	797.656000	58.324169	-354.081452	809.108615	277.158171	-416.724622	1384.301901	426.678866	-420.075655	1381.222963	293.504536	-591.116488	1530.198693	413.362861	-543.220997	1638.441324	395.410031	-603.821456	1520.390034	312.752277	-529.492676	1648.527980	427.328169	-350.983739	14.217112	495.040387	-324.296564	-4.966762	256.064922	-352.223009	17.487857	187.482193	-315.730661	-3.916349	341.501474	-182.740927	1039.431572	341.481686	-192.507967	1063.594818	342.301548	-200.887799	1091.731668	342.756212	-203.978717	1118.171334	343.865514	-202.856168	1143.804550	346.535146	-196.482345	1196.711540	348.984092	-192.772642	1252.057552	351.270795	-197.728127	1301.507473	353.141010	-209.735766	1342.092395	354.406714	-224.690810	1374.726415	355.104238	-250.670522	1416.150451	355.671108	-268.786937	1438.308001	356.402606	-285.865903	1455.327034	143.717170	-410.079777	678.654850	111.468092	-396.173954	640.726924	97.712889	-373.130113	637.876034	93.762890	-357.612818	653.344929	80.331519	-338.898301	671.064436	551.413715	-452.846467	670.190513	571.659505	-436.825573	638.701737	581.852376	-415.338010	631.913364	585.190892	-398.498416	645.987391	599.313498	-377.911389	662.285030	341.780216	-295.316249	923.044205	346.707970	-261.450261	1051.040888	353.778869	-318.775058	1172.280788	351.911992	-336.250395	1222.566605	402.353913	-273.112833	841.915786	277.834415	-279.477149	833.530962	448.739767	-295.871973	462.942541	239.436895	-309.235364	455.061823	409.043938	-230.372518	44.314299	297.245562	-232.713118	48.215602	466.881365	-343.105972	-16.820576	218.235672	-343.159795	-8.286562	345.756769	-366.226733	1431.754231	427.519351	-353.706241	1335.935950	272.758275	-345.055044	1340.426445	352.262884	-450.527698	1474.350572	558.862686	-349.158257	1305.022120	150.318548	-353.704274	1317.365170	575.766802	-322.669804	1049.274564	108.291224	-305.419594	1060.732484	603.934586	-402.443707	795.347512	77.535197	-375.531435	801.846981	606.948555	-452.471793	699.330091	603.687227	-459.108084	667.012215	588.811338	-448.962986	652.216673	625.319123	-437.772334	689.446390	621.636212	-436.322153	657.699049	604.649603	-425.594270	643.345237	638.604820	-391.552210	703.121483	633.324087	-386.173278	684.144557	618.485212	-379.859120	672.683120	635.168254	-412.927926	695.617795	627.683699	-413.298309	666.956246	608.594239	-404.756606	654.045939	578.879595	-429.042280	752.849638	563.462794	-440.009534	727.219939	560.653925	-452.104777	702.911615	79.788938	-420.638025	703.626096	82.001045	-423.734695	669.878900	94.998613	-410.466880	655.496120	58.685612	-406.001121	694.464564	61.197024	-401.642710	662.689090	76.692000	-388.137907	649.248242	42.102944	-360.772341	710.708380	47.077965	-352.733344	692.640185	61.251830	-344.011068	682.087898	46.438199	-381.618023	702.026725	52.530389	-378.472775	673.191011	70.397153	-366.428405	661.063731	106.957778	-398.417294	760.367870	124.705523	-403.829753	733.797908	130.072191	-411.885619	707.687080	339.131936	-375.526309	904.907703	343.228325	-163.879447	1003.571749	340.094164	-276.294991	837.723374	341.180131	-269.702878	954.239726	606.893092	-404.769838	801.472187	75.062854	-379.865780	811.535358	424.532965	-224.380642	62.359186	278.697431	-226.328440	65.923752	434.414372	-298.845187	461.304322	254.132658	-313.041762	458.853483	576.958597	-325.348318	1051.371872	107.465878	-307.831869	1060.479939	278.697431	-711.902976	65.923752	424.532965	-711.902976	62.359186	218.235672	-711.902976	-8.286562	466.881365	-711.902976	-16.820576	251.831412	-711.902976	-4.034605	427.235961	-711.902976	-7.867660	256.064922	-711.902976	17.487857	427.328169	-711.902976	14.217112	187.482193	-711.902976	-3.916349	495.040387	-711.902976	-4.966762	307.143301	-711.902976	-2.458003	412.498474	-711.902976	-6.428029
